<svg width="165" height="46" viewBox="0 0 165 46" fill="none" xmlns="http://www.w3.org/2000/svg">
<path d="M165 16.6532L118.006 0.392609V10.1348H99.1244C90.1685 10.1236 84.0548 13.8729 81.2437 16.7874C76.6725 21.3417 74.676 26.3283 72.2878 29.9136C71.442 31.2553 70.5464 32.3548 69.9431 32.9585H52.7279C51.4031 31.4752 49.1828 27.1557 46.9874 22.9256C45.5134 20.4062 43.8777 17.7825 40.6871 15.2109C37.7267 12.6691 31.582 10.0454 24.4919 10.1348H0V23.1791H23.4595L23.6461 23.3468C25.4497 24.8375 27.5829 29.5447 30.052 34.1101C31.4078 36.432 32.8818 38.8135 35.7738 41.1801C38.3673 43.4685 43.9834 45.9991 50.5946 45.9991H71.9084C76.2371 46.0363 80.429 44.9331 83.1655 43.5505C92.1089 38.5638 93.16 32.7945 96.4127 28.1694C97.7623 25.896 99.2239 24.0102 100.169 23.2685L100.281 23.1753H118.006V32.9175L165 16.6532ZM45.7746 13.0754C49.3196 15.9078 51.2165 18.8819 52.8522 21.6846L53.6297 23.1753H69.6757C71.2056 20.5739 73.115 17.6595 75.9261 14.8643C77.4934 13.2356 79.7821 11.5622 82.643 10.1311H41.1598C43.0567 11.074 44.6427 12.0952 45.7808 13.0754H45.7746Z" fill="white"/>
</svg>
